<svg width="1218" height="738" viewBox="0 0 1218 738" fill="none" xmlns="http://www.w3.org/2000/svg">
<path d="M61.7867 1V57.6154M61.7867 1H1V57.6154M61.7867 1H122.573M61.7867 57.6154L61.7867 114.231M61.7867 57.6154H1M61.7867 57.6154L122.573 57.6154M61.7867 114.231V170.846M61.7867 114.231H1M61.7867 114.231L122.573 114.231M61.7867 170.846L61.7867 227.461M61.7867 170.846H1M61.7867 170.846H122.573M61.7867 227.461V284.077M61.7867 227.461H1M61.7867 227.461H122.573M61.7867 284.077V340.692M61.7867 284.077H1M61.7867 284.077H122.573M61.7867 340.692L61.7867 397.308M61.7867 340.692H1M61.7867 340.692H122.573M61.7867 397.308V453.923M61.7867 397.308H1M61.7867 397.308H122.573M61.7867 453.923V510.538M61.7867 453.923H1M61.7867 453.923H122.573M61.7867 510.538L61.7867 567.154M61.7867 510.538H1M61.7867 510.538H122.573M61.7867 567.154V623.769M61.7867 567.154H1M61.7867 567.154H122.573M61.7867 623.769L61.7867 680.385M61.7867 623.769H1M61.7867 623.769H122.573M61.7867 680.385V737M61.7867 680.385H1M61.7867 680.385H122.573M61.7867 737L1 737V680.385M61.7867 737H122.573M1 57.6154V114.231M1 114.231V170.846M1 170.846V227.461M1 227.461V284.077M1 284.077V340.692M1 340.692V397.308M1 397.308V453.923M1 453.923V510.538M1 510.538V567.154M1 567.154V623.769M1 623.769V680.385M122.573 1V57.6154M122.573 1H183.36M122.573 57.6154V114.231M122.573 57.6154H183.36M122.573 114.231L122.573 170.846M122.573 114.231H183.36M122.573 170.846V227.461M122.573 170.846L183.36 170.846M122.573 227.461V284.077M122.573 227.461H183.36M122.573 284.077V340.692M122.573 284.077H183.36M122.573 340.692L122.573 397.308M122.573 340.692H183.36M122.573 397.308V453.923M122.573 397.308H183.36M122.573 453.923V510.538M122.573 453.923H183.36M122.573 510.538V567.154M122.573 510.538H183.36M122.573 567.154L122.573 623.769M122.573 567.154H183.36M122.573 623.769V680.385M122.573 623.769H183.36M122.573 680.385V737M122.573 680.385H183.36M122.573 737H183.36M183.36 1V57.6154M183.36 1H244.147M183.36 57.6154V114.231M183.36 57.6154L244.147 57.6154M183.36 114.231L183.36 170.846M183.36 114.231H244.147M183.36 170.846V227.461M183.36 170.846H244.147M183.36 227.461V284.077M183.36 227.461L244.147 227.462M183.36 284.077V340.692M183.36 284.077L244.147 284.077M183.36 340.692L183.36 397.308M183.36 340.692H244.147M183.36 397.308V453.923M183.36 397.308H244.147M183.36 453.923V510.538M183.36 453.923H244.147M183.36 510.538V567.154M183.36 510.538H244.147M183.36 567.154L183.36 623.769M183.36 567.154H244.147M183.36 623.769V680.385M183.36 623.769H244.147M183.36 680.385V737M183.36 680.385H244.147M183.36 737H244.147M244.147 1V57.6154M244.147 1H304.933M244.147 57.6154V114.231M244.147 57.6154H304.933M244.147 114.231V170.846M244.147 114.231L304.933 114.231M244.147 170.846V227.462M244.147 170.846H304.933M244.147 227.462V284.077M244.147 227.462H304.933M244.147 284.077V340.692M244.147 284.077H304.933M244.147 340.692L244.147 397.308M244.147 340.692H304.933M244.147 397.308V453.923M244.147 397.308H304.933M244.147 453.923V510.538M244.147 453.923H304.933M244.147 510.538V567.154M244.147 510.538H304.933M244.147 567.154V623.769M244.147 567.154H304.933M244.147 623.769V680.385M244.147 623.769H304.933M244.147 680.385V737M244.147 680.385H304.933M244.147 737H304.933M426.507 1V57.6154M426.507 1H365.72M426.507 1H487.294M426.507 57.6154V114.231M426.507 57.6154H365.72M426.507 57.6154L487.294 57.6154M426.507 114.231V170.846M426.507 114.231H365.72M426.507 114.231H487.294M426.507 170.846V227.462M426.507 170.846L365.72 170.846M426.507 170.846H487.294M426.507 227.462V284.077M426.507 227.462H365.72M426.507 227.462H487.294M426.507 284.077V340.692M426.507 284.077H365.72M426.507 284.077H487.294M426.507 340.692L426.507 397.308M426.507 340.692L365.72 340.692M426.507 340.692H487.294M426.507 397.308V453.923M426.507 397.308L365.72 397.308M426.507 397.308H487.293M426.507 453.923V510.538M426.507 453.923L365.72 453.923M426.507 453.923H487.293M426.507 510.538V567.154M426.507 510.538H365.72M426.507 510.538H487.293M426.507 567.154V623.769M426.507 567.154L365.72 567.154M426.507 567.154H487.293M426.507 623.769V680.385M426.507 623.769L365.72 623.769M426.507 623.769H487.293M426.507 680.385V737M426.507 680.385L365.72 680.385M426.507 680.385H487.293M426.507 737H365.72M426.507 737H487.293M608.867 1V57.6154M608.867 1H548.08M608.867 1H669.654M608.867 57.6154V114.231M608.867 57.6154L548.08 57.6154M608.867 57.6154H669.654M608.867 114.231V170.846M608.867 114.231H548.08M608.867 114.231H669.654M608.867 170.846V227.462M608.867 170.846H548.08M608.867 170.846L669.654 170.846M608.867 227.462V284.077M608.867 227.462L548.08 227.462M608.867 227.462H669.654M608.867 284.077V340.692M608.867 284.077L548.08 284.077M608.867 284.077H669.654M608.867 340.692L608.867 397.308M608.867 340.692H548.08M608.867 340.692H669.654M608.867 397.308V453.923M608.867 397.308H548.08M608.867 397.308H669.654M608.867 453.923V510.538M608.867 453.923H548.08M608.867 453.923H669.654M608.867 510.538V567.154M608.867 510.538H548.08M608.867 510.538H669.654M608.867 567.154V623.769M608.867 567.154H548.08M608.867 567.154H669.654M608.867 623.769V680.385M608.867 623.769H548.08M608.867 623.769H669.654M608.867 680.385V737M608.867 680.385H548.08M608.867 680.385H669.654M608.867 737H548.08M608.867 737H669.654M304.933 1V57.6154M304.933 1H365.72M304.933 57.6154V114.231M304.933 57.6154L365.72 57.6154M304.933 114.231V170.846M304.933 114.231H365.72M304.933 170.846V227.462M304.933 170.846H365.72M304.933 227.462V284.077M304.933 227.462H365.72M304.933 284.077V340.692M304.933 284.077H365.72M304.933 340.692L304.933 397.308M304.933 340.692H365.72M304.933 397.308V453.923M304.933 397.308H365.72M304.933 453.923V510.538M304.933 453.923H365.72M304.933 510.538V567.154M304.933 510.538H365.72M304.933 567.154V623.769M304.933 567.154H365.72M304.933 623.769V680.385M304.933 623.769H365.72M304.933 680.385V737M304.933 680.385H365.72M304.933 737H365.72M487.294 1V57.6154M487.294 1H548.08M487.294 57.6154V114.231M487.294 57.6154H548.08M487.294 114.231V170.846M487.294 114.231L548.08 114.231M487.294 170.846V227.462M487.294 170.846H548.08M487.294 227.462V284.077M487.294 227.462H548.08M487.294 284.077V340.692M487.294 284.077H548.08M487.294 340.692L487.293 397.308M487.294 340.692H548.08M487.293 397.308V453.923M487.293 397.308H548.08M487.293 453.923V510.538M487.293 453.923H548.08M487.293 510.538V567.154M487.293 510.538H548.08M487.293 567.154V623.769M487.293 567.154H548.08M487.293 623.769V680.385M487.293 623.769H548.08M487.293 680.385V737M487.293 680.385H548.08M487.293 737H548.08M669.654 1V57.6154M669.654 1H730.44M669.654 57.6154V114.231M669.654 57.6154L730.44 57.6154M669.654 114.231V170.846M669.654 114.231L730.44 114.231M669.654 170.846V227.462M669.654 170.846H730.44M669.654 227.462V284.077M669.654 227.462H730.44M669.654 284.077V340.692M669.654 284.077H730.44M669.654 340.692V397.308M669.654 340.692H730.44M669.654 397.308V453.923M669.654 397.308H730.44M669.654 453.923V510.538M669.654 453.923H730.44M669.654 510.538V567.154M669.654 510.538H730.44M669.654 567.154V623.769M669.654 567.154H730.44M669.654 623.769V680.385M669.654 623.769H730.44M669.654 680.385V737M669.654 680.385H730.44M669.654 737H730.44M365.72 1V57.6154M365.72 57.6154V114.231M365.72 114.231V170.846M365.72 170.846L365.72 227.462M365.72 227.462V284.077M365.72 284.077V340.692M365.72 340.692V397.308M365.72 397.308V453.923M365.72 453.923V510.538M365.72 510.538L365.72 567.154M365.72 567.154V623.769M365.72 623.769V680.385M365.72 680.385V737M548.08 1V57.6154M548.08 57.6154V114.231M548.08 114.231V170.846M548.08 170.846V227.462M548.08 227.462V284.077M548.08 284.077V340.692M548.08 340.692V397.308M548.08 397.308V453.923M548.08 453.923V510.538M548.08 510.538V567.154M548.08 567.154V623.769M548.08 623.769V680.385M548.08 680.385V737M730.44 1V57.6154M730.44 1H791.227V737H730.44M730.44 57.6154V114.231M730.44 57.6154H791.226M730.44 114.231V170.846M730.44 114.231H791.226M730.44 170.846V227.462M730.44 170.846H791.226M730.44 227.462V284.077M730.44 227.462H791.226M730.44 284.077V340.692M730.44 284.077H791.226M730.44 340.692V397.308M730.44 340.692H791.226M730.44 397.308V453.923M730.44 397.308H791.226M730.44 453.923V510.538M730.44 453.923H791.226M730.44 510.538V567.154M730.44 510.538H791.226M730.44 567.154V623.769M730.44 567.154H791.226M730.44 623.769V680.385M730.44 623.769H791.226M730.44 680.385V737M730.44 680.385H791.226M487.56 1V57.6154M487.56 1H426.773V57.6154M487.56 1H548.346M487.56 57.6154V114.231M487.56 57.6154H426.773M487.56 57.6154L548.346 57.6154M487.56 114.231V170.846M487.56 114.231H426.773M487.56 114.231L548.346 114.231M487.56 170.846V227.461M487.56 170.846H426.773M487.56 170.846H548.346M487.56 227.461V284.077M487.56 227.461H426.773M487.56 227.461H548.346M487.56 284.077V340.692M487.56 284.077H426.773M487.56 284.077H548.346M487.56 340.692V397.308M487.56 340.692H426.773M487.56 340.692H548.346M487.56 397.308V453.923M487.56 397.308H426.773M487.56 397.308H548.346M487.56 453.923V510.538M487.56 453.923H426.773M487.56 453.923H548.346M487.56 510.538V567.154M487.56 510.538H426.773M487.56 510.538H548.346M487.56 567.154V623.769M487.56 567.154H426.773M487.56 567.154H548.346M487.56 623.769L487.56 680.385M487.56 623.769H426.773M487.56 623.769H548.346M487.56 680.385V737M487.56 680.385H426.773M487.56 680.385H548.346M487.56 737L426.773 737V680.385M487.56 737H548.346M426.773 57.6154V114.231M426.773 114.231V170.846M426.773 170.846V227.461M426.773 227.461V284.077M426.773 284.077V340.692M426.773 340.692V397.308M426.773 397.308V453.923M426.773 453.923V510.538M426.773 510.538V567.154M426.773 567.154V623.769M426.773 623.769V680.385M548.346 1V57.6154M548.346 1H609.133M548.346 57.6154V114.231M548.346 57.6154H609.133M548.346 114.231V170.846M548.346 114.231H609.133M548.346 170.846V227.461M548.346 170.846L609.133 170.846M548.346 227.461V284.077M548.346 227.461H609.133M548.346 284.077V340.692M548.346 284.077H609.133M548.346 340.692V397.308M548.346 340.692H609.133M548.346 397.308V453.923M548.346 397.308H609.133M548.346 453.923V510.538M548.346 453.923H609.133M548.346 510.538V567.154M548.346 510.538H609.133M548.346 567.154V623.769M548.346 567.154H609.133M548.346 623.769V680.385M548.346 623.769H609.133M548.346 680.385V737M548.346 680.385H609.133M548.346 737H609.133M609.133 1V57.6154M609.133 1H669.92M609.133 57.6154V114.231M609.133 57.6154L669.92 57.6154M609.133 114.231L609.133 170.846M609.133 114.231H669.92M609.133 170.846V227.461M609.133 170.846H669.92M609.133 227.461V284.077M609.133 227.461L669.92 227.462M609.133 284.077V340.692M609.133 284.077L669.92 284.077M609.133 340.692V397.308M609.133 340.692H669.92M609.133 397.308V453.923M609.133 397.308H669.92M609.133 453.923V510.538M609.133 453.923H669.92M609.133 510.538V567.154M609.133 510.538H669.92M609.133 567.154V623.769M609.133 567.154H669.92M609.133 623.769V680.385M609.133 623.769H669.92M609.133 680.385V737M609.133 680.385H669.92M609.133 737H669.92M669.92 1V57.6154M669.92 1H730.706M669.92 57.6154V114.231M669.92 57.6154H730.706M669.92 114.231V170.846M669.92 114.231L730.706 114.231M669.92 170.846V227.462M669.92 170.846H730.706M669.92 227.462V284.077M669.92 227.462H730.706M669.92 284.077V340.692M669.92 284.077H730.706M669.92 340.692L669.92 397.308M669.92 340.692H730.706M669.92 397.308V453.923M669.92 397.308H730.706M669.92 453.923V510.538M669.92 453.923H730.706M669.92 510.538V567.154M669.92 510.538H730.706M669.92 567.154V623.769M669.92 567.154H730.706M669.92 623.769V680.385M669.92 623.769H730.706M669.92 680.385V737M669.92 680.385H730.706M669.92 737H730.706M852.28 1V57.6154M852.28 1H791.493M852.28 1H913.066M852.28 57.6154V114.231M852.28 57.6154H791.493M852.28 57.6154L913.066 57.6154M852.28 114.231V170.846M852.28 114.231H791.493M852.28 114.231H913.066M852.28 170.846V227.462M852.28 170.846L791.493 170.846M852.28 170.846H913.066M852.28 227.462V284.077M852.28 227.462H791.493M852.28 227.462H913.066M852.28 284.077V340.692M852.28 284.077H791.493M852.28 284.077H913.066M852.28 340.692V397.308M852.28 340.692L791.493 340.692M852.28 340.692H913.066M852.28 397.308V453.923M852.28 397.308L791.493 397.308M852.28 397.308H913.066M852.28 453.923V510.538M852.28 453.923L791.493 453.923M852.28 453.923H913.066M852.28 510.538V567.154M852.28 510.538H791.493M852.28 510.538H913.066M852.28 567.154V623.769M852.28 567.154L791.493 567.154M852.28 567.154H913.066M852.28 623.769V680.385M852.28 623.769L791.493 623.769M852.28 623.769H913.066M852.28 680.385V737M852.28 680.385L791.493 680.385M852.28 680.385H913.066M852.28 737H791.493M852.28 737H913.066M1034.64 1V57.6154M1034.64 1H973.853M1034.64 1H1095.43M1034.64 57.6154V114.231M1034.64 57.6154L973.853 57.6154M1034.64 57.6154H1095.43M1034.64 114.231V170.846M1034.64 114.231H973.853M1034.64 114.231H1095.43M1034.64 170.846V227.462M1034.64 170.846H973.853M1034.64 170.846L1095.43 170.846M1034.64 227.462V284.077M1034.64 227.462L973.853 227.462M1034.64 227.462H1095.43M1034.64 284.077V340.692M1034.64 284.077L973.853 284.077M1034.64 284.077H1095.43M1034.64 340.692L1034.64 397.308M1034.64 340.692H973.853M1034.64 340.692H1095.43M1034.64 397.308V453.923M1034.64 397.308H973.853M1034.64 397.308H1095.43M1034.64 453.923V510.538M1034.64 453.923H973.853M1034.64 453.923H1095.43M1034.64 510.538V567.154M1034.64 510.538H973.853M1034.64 510.538H1095.43M1034.64 567.154V623.769M1034.64 567.154H973.853M1034.64 567.154H1095.43M1034.64 623.769V680.385M1034.64 623.769H973.853M1034.64 623.769H1095.43M1034.64 680.385V737M1034.64 680.385H973.853M1034.64 680.385H1095.43M1034.64 737H973.853M1034.64 737H1095.43M730.706 1V57.6154M730.706 1H791.493M730.706 57.6154V114.231M730.706 57.6154L791.493 57.6154M730.706 114.231V170.846M730.706 114.231H791.493M730.706 170.846V227.462M730.706 170.846H791.493M730.706 227.462V284.077M730.706 227.462H791.493M730.706 284.077V340.692M730.706 284.077H791.493M730.706 340.692V397.308M730.706 340.692H791.493M730.706 397.308V453.923M730.706 397.308H791.493M730.706 453.923V510.538M730.706 453.923H791.493M730.706 510.538V567.154M730.706 510.538H791.493M730.706 567.154V623.769M730.706 567.154H791.493M730.706 623.769V680.385M730.706 623.769H791.493M730.706 680.385V737M730.706 680.385H791.493M730.706 737H791.493M913.066 1V57.6154M913.066 1H973.853M913.066 57.6154V114.231M913.066 57.6154H973.853M913.066 114.231V170.846M913.066 114.231L973.853 114.231M913.066 170.846V227.462M913.066 170.846H973.853M913.066 227.462V284.077M913.066 227.462H973.853M913.066 284.077V340.692M913.066 284.077H973.853M913.066 340.692V397.308M913.066 340.692H973.853M913.066 397.308V453.923M913.066 397.308H973.853M913.066 453.923V510.538M913.066 453.923H973.853M913.066 510.538V567.154M913.066 510.538H973.853M913.066 567.154V623.769M913.066 567.154H973.853M913.066 623.769V680.385M913.066 623.769H973.853M913.066 680.385V737M913.066 680.385H973.853M913.066 737H973.853M1095.43 1V57.6154M1095.43 1H1156.21M1095.43 57.6154V114.231M1095.43 57.6154L1156.21 57.6154M1095.43 114.231V170.846M1095.43 114.231L1156.21 114.231M1095.43 170.846V227.462M1095.43 170.846H1156.21M1095.43 227.462V284.077M1095.43 227.462H1156.21M1095.43 284.077V340.692M1095.43 284.077H1156.21M1095.43 340.692V397.308M1095.43 340.692H1156.21M1095.43 397.308V453.923M1095.43 397.308H1156.21M1095.43 453.923V510.538M1095.43 453.923H1156.21M1095.43 510.538V567.154M1095.43 510.538H1156.21M1095.43 567.154V623.769M1095.43 567.154H1156.21M1095.43 623.769V680.385M1095.43 623.769H1156.21M1095.43 680.385V737M1095.43 680.385H1156.21M1095.43 737H1156.21M791.493 1V57.6154M791.493 57.6154V114.231M791.493 114.231V170.846M791.493 170.846V227.462M791.493 227.462V284.077M791.493 284.077V340.692M791.493 340.692V397.308M791.493 397.308V453.923M791.493 453.923V510.538M791.493 510.538L791.493 567.154M791.493 567.154V623.769M791.493 623.769V680.385M791.493 680.385V737M973.853 1V57.6154M973.853 57.6154V114.231M973.853 114.231V170.846M973.853 170.846V227.462M973.853 227.462V284.077M973.853 284.077V340.692M973.853 340.692V397.308M973.853 397.308V453.923M973.853 453.923V510.538M973.853 510.538V567.154M973.853 567.154V623.769M973.853 623.769V680.385M973.853 680.385V737M1156.21 1V57.6154M1156.21 1H1217V737H1156.21M1156.21 57.6154V114.231M1156.21 57.6154H1217M1156.21 114.231V170.846M1156.21 114.231H1217M1156.21 170.846V227.462M1156.21 170.846H1217M1156.21 227.462V284.077M1156.21 227.462H1217M1156.21 284.077V340.692M1156.21 284.077H1217M1156.21 340.692V397.308M1156.21 340.692H1217M1156.21 397.308V453.923M1156.21 397.308H1217M1156.21 453.923V510.538M1156.21 453.923H1217M1156.21 510.538V567.154M1156.21 510.538H1217M1156.21 567.154V623.769M1156.21 567.154H1217M1156.21 623.769V680.385M1156.21 623.769H1217M1156.21 680.385V737M1156.21 680.385H1217" stroke="url(#paint0_linear_7710_657)"/>
<defs>
<linearGradient id="paint0_linear_7710_657" x1="1217" y1="1.00006" x2="1.27582" y2="737.455" gradientUnits="userSpaceOnUse">
<stop stop-color="white" stop-opacity="0"/>
<stop offset="0.5" stop-color="white" stop-opacity="0.1"/>
<stop offset="1" stop-color="white" stop-opacity="0"/>
</linearGradient>
</defs>
</svg>
