<svg width="26" height="24" viewBox="0 0 26 24" fill="none" xmlns="http://www.w3.org/2000/svg">
<path d="M12.9991 0C6.2048 0 0.695312 5.50847 0.695312 12.3038C0.695312 17.74 4.22073 22.3519 9.10941 23.9789C9.72431 24.0927 9.95006 23.7119 9.95006 23.387C9.95006 23.0936 9.93865 22.1244 9.93335 21.0963C6.51042 21.8405 5.78815 19.6446 5.78815 19.6446C5.22846 18.2224 4.42203 17.8443 4.42203 17.8443C3.30571 17.0806 4.50618 17.0963 4.50618 17.0963C5.74169 17.1831 6.39225 18.3642 6.39225 18.3642C7.48963 20.2452 9.27057 19.7014 9.97268 19.387C10.0831 18.5918 10.402 18.049 10.7538 17.7418C8.021 17.4307 5.14818 16.3757 5.14818 11.6612C5.14818 10.3179 5.62882 9.22032 6.41589 8.35868C6.28814 8.04878 5.86699 6.79737 6.53508 5.10261C6.53508 5.10261 7.56827 4.77193 9.9195 6.3638C10.9009 6.09119 11.9535 5.95447 12.9991 5.94979C14.0447 5.95447 15.0981 6.09119 16.0814 6.3638C18.4298 4.77193 19.4615 5.10261 19.4615 5.10261C20.1312 6.79737 19.7099 8.04878 19.5821 8.35868C20.3711 9.22032 20.8484 10.3179 20.8484 11.6612C20.8484 16.3869 17.9701 17.4274 15.2303 17.732C15.6717 18.1138 16.0649 18.8626 16.0649 20.0105C16.0649 21.6568 16.0506 22.9817 16.0506 23.387C16.0506 23.7144 16.2721 24.098 16.8958 23.9772C21.7818 22.3485 25.3027 17.7381 25.3027 12.3038C25.3027 5.50847 19.794 0 12.9991 0ZM5.30349 17.527C5.27639 17.5882 5.18022 17.6065 5.09261 17.5645C5.00337 17.5244 4.95325 17.4411 4.98218 17.3797C5.00867 17.3168 5.10504 17.2992 5.19408 17.3414C5.28352 17.3816 5.33446 17.4657 5.30349 17.527ZM5.9087 18.0671C5.85002 18.1215 5.73531 18.0962 5.65748 18.0102C5.577 17.9244 5.56192 17.8097 5.62142 17.7545C5.68193 17.7001 5.79317 17.7256 5.87386 17.8114C5.95434 17.8981 5.97003 18.012 5.9087 18.0671ZM6.3239 18.758C6.24851 18.8104 6.12524 18.7613 6.04904 18.6518C5.97366 18.5424 5.97366 18.4112 6.05067 18.3587C6.12708 18.3061 6.24851 18.3534 6.32573 18.462C6.40091 18.5732 6.40091 18.7044 6.3239 18.758ZM7.02608 19.5582C6.95864 19.6326 6.815 19.6126 6.70987 19.5111C6.60229 19.4119 6.57234 19.2711 6.63999 19.1968C6.70824 19.1222 6.8527 19.1432 6.95864 19.2438C7.06541 19.3428 7.09801 19.4846 7.02608 19.5582ZM7.93359 19.8283C7.90385 19.9247 7.7655 19.9685 7.62614 19.9276C7.48698 19.8854 7.39591 19.7725 7.42403 19.6751C7.45296 19.5781 7.59191 19.5325 7.73229 19.5763C7.87125 19.6183 7.96252 19.7303 7.93359 19.8283ZM8.96638 19.9429C8.96984 20.0444 8.85167 20.1285 8.70538 20.1304C8.55827 20.1336 8.43929 20.0515 8.43766 19.9517C8.43766 19.8492 8.55318 19.7659 8.70028 19.7634C8.84657 19.7606 8.96638 19.8421 8.96638 19.9429ZM9.98097 19.904C9.99849 20.0031 9.89682 20.1047 9.75155 20.1318C9.60873 20.1579 9.4765 20.0968 9.45836 19.9986C9.44064 19.8971 9.54414 19.7954 9.68676 19.7692C9.83224 19.7439 9.96243 19.8034 9.98097 19.904Z" fill="#02020A"/>
</svg>
